<svg width="32" height="32" viewBox="0 0 32 32" fill="none" xmlns="http://www.w3.org/2000/svg">
<rect width="32" height="32" rx="16" fill="white"/>
<path d="M8.5 23.5H23.5" stroke="#996FD6" stroke-width="1.25" stroke-linecap="round" stroke-linejoin="round"/>
<path d="M9.33203 23.5V16.75C9.33203 15.505 10.4495 14.5 11.8295 14.5H20.162C21.542 14.5 22.6595 15.505 22.6595 16.75V23.5" stroke="#996FD6" stroke-width="1.25" stroke-linecap="round" stroke-linejoin="round"/>
<path d="M11.1699 14.5V12.3775C11.1699 11.4775 11.9799 10.75 12.9849 10.75H19.0224C20.0199 10.75 20.8299 11.4775 20.8299 12.3775V14.5" stroke="#996FD6" stroke-width="1.25" stroke-linecap="round" stroke-linejoin="round"/>
<path d="M9.64746 17.4854L9.92496 17.4929C10.48 17.5004 10.9225 17.9504 10.9225 18.5054V18.7529C10.9225 19.3079 11.3725 19.7654 11.935 19.7654C12.49 19.7654 12.9475 19.3154 12.9475 18.7529V18.5204C12.9475 17.9654 13.3975 17.5079 13.96 17.5079C14.515 17.5079 14.9725 17.9579 14.9725 18.5204V18.7529C14.9725 19.3079 15.4225 19.7654 15.985 19.7654C16.54 19.7654 16.9975 19.3154 16.9975 18.7529V18.5204C16.9975 17.9654 17.4475 17.5079 18.01 17.5079C18.565 17.5079 19.0225 17.9579 19.0225 18.5204V18.7529C19.0225 19.3079 19.4725 19.7654 20.035 19.7654C20.59 19.7654 21.0475 19.3154 21.0475 18.7529V18.5204C21.0475 17.9654 21.4975 17.5079 22.06 17.5079H22.3975" stroke="#996FD6" stroke-width="1.25" stroke-linecap="round" stroke-linejoin="round"/>
<path d="M13 10.75V9.25" stroke="#996FD6" stroke-width="1.25" stroke-linecap="round" stroke-linejoin="round"/>
<path d="M19 10.75V9.25" stroke="#996FD6" stroke-width="1.25" stroke-linecap="round" stroke-linejoin="round"/>
<path d="M16 10.75V8.5" stroke="#996FD6" stroke-width="1.25" stroke-linecap="round" stroke-linejoin="round"/>
</svg>
