<svg width="32" height="32" viewBox="0 0 32 32" fill="none" xmlns="http://www.w3.org/2000/svg">
<rect width="32" height="32" rx="16" fill="#D0C9EA" fill-opacity="0.3"/>
<path d="M12.666 7.66602V10.166" stroke="#996FD6" stroke-width="1.25" stroke-miterlimit="10" stroke-linecap="round" stroke-linejoin="round"/>
<path d="M19.334 7.66602V10.166" stroke="#996FD6" stroke-width="1.25" stroke-miterlimit="10" stroke-linecap="round" stroke-linejoin="round"/>
<path d="M8.91602 13.5742H23.0827" stroke="#996FD6" stroke-width="1.25" stroke-miterlimit="10" stroke-linecap="round" stroke-linejoin="round"/>
<path d="M22.0085 19.1416L19.0585 22.0916C18.9419 22.2082 18.8335 22.4249 18.8085 22.5832L18.6502 23.7082C18.5919 24.1166 18.8752 24.3999 19.2835 24.3416L20.4085 24.1833C20.5669 24.1583 20.7919 24.0499 20.9002 23.9332L23.8502 20.9833C24.3585 20.4749 24.6002 19.8833 23.8502 19.1333C23.1085 18.3916 22.5169 18.6332 22.0085 19.1416Z" stroke="#996FD6" stroke-width="1.25" stroke-miterlimit="10" stroke-linecap="round" stroke-linejoin="round"/>
<path d="M21.584 19.5664C21.834 20.4664 22.534 21.1664 23.434 21.4164" stroke="#996FD6" stroke-width="1.25" stroke-miterlimit="10" stroke-linecap="round" stroke-linejoin="round"/>
<path d="M16 24.3327H12.6667C9.75 24.3327 8.5 22.666 8.5 20.166V13.0827C8.5 10.5827 9.75 8.91602 12.6667 8.91602H19.3333C22.25 8.91602 23.5 10.5827 23.5 13.0827V15.9993" stroke="#996FD6" stroke-width="1.25" stroke-miterlimit="10" stroke-linecap="round" stroke-linejoin="round"/>
<path d="M15.9961 17.4167H16.0036" stroke="#996FD6" stroke-width="1.66667" stroke-linecap="round" stroke-linejoin="round"/>
<path d="M12.9121 17.4167H12.9196" stroke="#996FD6" stroke-width="1.66667" stroke-linecap="round" stroke-linejoin="round"/>
<path d="M12.9121 19.9167H12.9196" stroke="#996FD6" stroke-width="1.66667" stroke-linecap="round" stroke-linejoin="round"/>
</svg>
