<svg width="353" height="236" viewBox="0 0 353 236" fill="none" xmlns="http://www.w3.org/2000/svg">
<path d="M145.934 51.4786C148.264 52.8749 149.9 54.8634 150.574 57.4969C151.184 60.9141 151.094 64.7587 149.166 67.7382C148.79 68.3493 148.678 68.5983 148.765 69.3191C148.94 69.9013 149.15 70.4511 149.381 71.0131C150.129 73.3302 149.618 75.7479 148.692 77.9076C148.442 78.6499 148.48 79.0902 148.709 79.835C148.767 80.0297 148.825 80.2244 148.886 80.425C148.95 80.6323 149.014 80.8397 149.08 81.0533C149.21 81.4911 149.339 81.9292 149.468 82.3675C149.532 82.5853 149.596 82.803 149.661 83.0274C150.79 86.962 151.573 91.0473 151.68 95.144C151.689 95.4936 151.689 95.4936 151.698 95.8502C151.866 103.222 150.966 109.6 145.704 115.138C145.12 115.655 144.521 116.097 143.866 116.517C143.733 116.611 143.6 116.705 143.463 116.802C142.557 117.436 142.557 117.436 142.027 117.436C141.951 119.181 141.875 120.925 141.797 122.722C142.423 122.708 142.423 122.708 143.061 122.693C144.323 122.692 145.547 122.781 146.796 122.938C146.958 122.957 147.119 122.977 147.286 122.998C148.431 123.151 148.431 123.151 148.692 123.412C149.157 123.42 149.622 123.415 150.087 123.405C151.925 123.392 153.732 123.551 155.558 123.742C155.871 123.773 156.184 123.805 156.497 123.836C157.088 123.895 157.679 123.957 158.27 124.021C158.721 124.068 159.172 124.111 159.625 124.145C161.274 124.283 161.916 125.192 162.941 126.399C163.815 127.448 164.647 128.526 165.469 129.617C165.565 129.742 165.661 129.868 165.76 129.998C169.159 134.457 171.669 139.506 173.512 144.785C173.595 145.019 173.677 145.253 173.762 145.495C176.561 154.015 176.539 162.872 176.088 171.721C175.82 176.998 175.647 182.278 175.487 187.56C175.451 188.739 175.414 189.917 175.377 191.096C175.37 191.331 175.362 191.567 175.355 191.81C175.34 192.284 175.325 192.757 175.31 193.231C175.288 193.931 175.266 194.63 175.244 195.33C175.133 198.909 175.016 202.488 174.891 206.067C174.872 206.597 174.854 207.128 174.836 207.658C174.789 209.018 174.738 210.377 174.684 211.736C174.661 212.36 174.645 212.984 174.63 213.608C174.617 214.002 174.604 214.396 174.591 214.79C174.589 214.966 174.586 215.142 174.584 215.323C174.526 216.801 173.956 217.59 173.009 218.671C166.614 224.356 156.515 225.347 148.337 226.087C147.953 226.123 147.57 226.161 147.188 226.201C142.293 226.707 137.391 226.678 132.476 226.672C131.516 226.671 130.556 226.673 129.596 226.677C122.908 226.706 116.288 226.463 109.623 225.91C109.626 225.772 109.628 225.633 109.631 225.49C109.633 225.306 109.635 225.123 109.637 224.934C109.64 224.752 109.643 224.571 109.645 224.384C109.624 223.863 109.538 223.422 109.393 222.923C109.598 222.87 109.803 222.817 110.014 222.762C110.283 222.687 110.552 222.612 110.829 222.535C111.096 222.463 111.363 222.391 111.637 222.317C112.488 221.958 112.816 221.632 113.3 220.854C113.415 219.781 113.259 219.074 112.84 218.096C112.998 218.041 113.156 217.985 113.319 217.928C113.526 217.851 113.733 217.774 113.946 217.694C114.152 217.62 114.357 217.545 114.568 217.468C115.212 217.14 115.474 216.884 115.828 216.258C116.066 215.166 115.952 214.384 115.354 213.443C114.881 212.953 114.359 212.568 113.803 212.179C113.561 212.008 113.319 211.837 113.07 211.662C113.07 211.51 113.07 211.358 113.07 211.202C113.307 211.143 113.307 211.143 113.549 211.083C113.756 211.028 113.963 210.972 114.176 210.915C114.484 210.835 114.484 210.835 114.798 210.753C115.47 210.469 115.697 210.22 116.058 209.593C116.214 208.813 116.278 208.487 116.058 207.755C113.914 204.801 109.19 203.683 105.797 202.986C100.505 202.173 95.1393 202.508 90.0552 204.153C89.3907 204.309 89.0911 204.369 88.4797 204.078C87.8139 203.357 87.6931 202.833 87.6421 201.864C87.6267 201.602 87.6113 201.34 87.5954 201.07C87.5818 200.785 87.5681 200.5 87.5541 200.207C87.5281 199.75 87.5021 199.293 87.476 198.836C87.4488 198.35 87.423 197.865 87.3977 197.379C87.3101 195.705 87.2111 194.032 87.1124 192.359C87.1027 192.192 87.0929 192.025 87.0829 191.853C86.8763 188.331 86.5749 184.82 86.2318 181.309C86.213 181.115 86.1941 180.921 86.1747 180.721C86.14 180.367 86.1047 180.014 86.0684 179.66C85.9784 178.757 85.8925 177.866 85.9517 176.959C86.4158 176.461 86.4158 176.461 87.0577 175.997C93.5111 171.034 96.6753 163.462 97.9022 155.586C97.946 155.316 97.9899 155.046 98.035 154.767C98.9197 147.23 98.0624 138.469 93.3202 132.288C92.0508 130.781 90.8141 129.591 88.9393 128.927C88.9393 128.775 88.9393 128.624 88.9393 128.468C89.3453 128.255 89.7525 128.045 90.1602 127.836C90.3868 127.718 90.6135 127.601 90.847 127.48C92.9297 126.482 95.1352 125.897 97.3707 125.351C97.6541 125.28 97.9375 125.21 98.2294 125.138C100.002 124.705 101.774 124.328 103.57 124.009C106.086 123.558 108.56 123.047 110.169 120.884C111.31 118.943 111.706 116.773 111.93 114.564C111.949 114.378 111.969 114.191 111.988 113.999C112.224 111.573 112.313 109.141 112.409 106.707C112.429 106.228 112.449 105.75 112.47 105.272C112.518 104.117 112.565 102.963 112.611 101.809C112.425 101.814 112.24 101.819 112.05 101.824C111.682 101.83 111.682 101.83 111.307 101.836C111.065 101.842 110.823 101.847 110.574 101.852C108.915 101.752 107.695 100.89 106.563 99.7259C104.509 97.2467 104.103 94.3377 104.337 91.2371C104.567 90.5264 104.857 90.0398 105.256 89.3985C105.495 88.8785 105.495 88.8785 105.486 88.2494C105.193 87.6337 104.895 87.0873 104.538 86.5114C104.344 86.1811 104.151 85.8501 103.959 85.5185C103.865 85.3567 103.772 85.1949 103.675 85.0282C101.555 81.2695 100.732 76.6873 101.509 72.4369C102.193 69.9959 103.458 67.7541 105.486 66.1869C105.884 66.0053 106.287 65.8329 106.693 65.6698C107.427 65.337 107.717 65.174 108.078 64.4435C108.22 63.969 108.354 63.4921 108.482 63.0135C109.302 60.3017 111.458 58.2929 113.86 56.9224C116.95 55.3556 119.936 54.8431 123.383 54.8828C123.633 54.8829 123.883 54.8831 124.141 54.8832C125.307 54.8896 126.401 54.9396 127.549 55.1557C130.933 55.4082 133.107 54.7027 135.867 52.7004C139.055 50.4097 142.287 49.8913 145.934 51.4786Z" fill="#4F2986"/>
<path d="M209.867 21.7748C212.021 22.2968 214.182 22.7649 216.353 23.2136C219.01 23.7632 221.664 24.3334 224.317 24.906C224.571 24.961 224.826 25.0159 225.089 25.0725C228.367 25.7793 231.641 26.5009 234.91 27.2498C237.253 27.7828 239.605 28.2655 241.96 28.7436C243.862 29.1302 245.758 29.5282 247.643 29.9908C249.736 30.504 251.84 30.9547 253.949 31.3975C256.031 31.8347 258.111 32.2777 260.19 32.7315C260.411 32.7797 260.632 32.828 260.859 32.8777C261.765 33.0756 262.671 33.2736 263.577 33.4721C265.894 33.9794 268.211 34.4811 270.537 34.9444C270.808 34.9987 270.808 34.9987 271.085 35.0542C271.919 35.221 272.753 35.3853 273.589 35.545C277.495 36.3195 277.495 36.3195 278.783 37.6178C279.546 38.9218 279.362 39.9638 279.009 41.3578C278.917 41.6869 278.822 42.0155 278.726 42.3435C278.681 42.501 278.636 42.6586 278.59 42.8209C278.246 43.9004 277.807 44.5584 276.93 45.2736C276.169 45.4604 276.169 45.4604 275.552 45.5035C275.552 45.6551 275.552 45.8068 275.552 45.9631C275.742 45.9814 275.742 45.9814 275.937 46.0001C277.153 46.125 278.335 46.3136 279.53 46.5691C279.706 46.6058 279.881 46.6426 280.062 46.6804C280.627 46.7992 281.192 46.9196 281.757 47.0404C281.95 47.0814 282.143 47.1224 282.341 47.1647C284.784 47.6847 287.225 48.2117 289.657 48.7784C289.881 48.8292 290.106 48.8801 290.337 48.9325C292.63 49.4807 294.563 50.3447 295.842 52.4186C297.42 55.4663 296.571 58.5669 295.604 61.685C294.743 64.387 293.683 66.9152 292.328 69.4045C292.253 69.5448 292.178 69.6852 292.101 69.8298C291.039 71.8121 289.819 73.6175 288.421 75.3798C288.189 75.6828 288.189 75.6828 287.952 75.992C283.637 81.4808 278.177 85.3748 271.645 87.7899C271.237 87.9486 271.237 87.9486 270.821 88.1104C266.264 89.7751 261.114 90.2949 256.281 90.4491C254.754 90.5103 253.466 90.7582 252.239 91.7255C246.816 95.6505 240.706 96.618 234.184 96.523C234.033 97.5089 233.881 98.4948 233.725 99.5106C234.104 99.6623 234.483 99.814 234.874 99.9703C235.644 100.975 236.057 101.759 236.038 103.024C236.036 103.223 236.034 103.423 236.031 103.628C236.028 103.845 236.025 104.062 236.021 104.285C236.016 104.751 236.012 105.217 236.008 105.683C236.005 105.927 236.003 106.172 236 106.424C235.933 114.662 236.676 122.897 238.953 130.852C239.655 133.311 239.912 135.81 240.16 138.35C240.184 138.575 240.208 138.8 240.232 139.031C241.481 151.054 242.462 167.994 234.414 178.108C232.257 180.598 229.624 182.414 226.28 182.793C225.446 182.828 224.619 182.832 223.785 182.82C223.483 182.817 223.18 182.814 222.869 182.811C220.062 182.764 217.389 182.373 214.65 181.785C214.378 181.729 214.107 181.672 213.827 181.614C201.183 178.952 187.122 175.001 176.27 167.766C176.201 167.187 176.174 166.66 176.177 166.08C176.172 165.726 176.168 165.372 176.163 165.018C176.162 164.831 176.161 164.645 176.16 164.452C176.064 151.761 172.952 139.857 165.239 129.617C165.076 129.4 164.913 129.184 164.745 128.96C163.542 127.416 162.208 125.99 160.873 124.561C162.764 123.615 167.337 125.717 169.199 126.317C174.442 128.086 179.558 130.809 184.084 133.983C184.519 134.271 184.955 134.559 185.391 134.845C186.526 135.601 187.641 136.383 188.752 137.172C190.545 138.442 192.35 139.686 194.196 140.878C194.455 141.045 194.455 141.045 194.72 141.216C198.924 143.913 203.283 146.341 207.827 148.419C208.036 148.514 208.244 148.609 208.459 148.707C209.378 149.117 210.206 149.437 211.203 149.611C211.346 149.22 211.346 149.22 211.492 148.822C212.951 144.894 214.605 141.05 216.259 137.201C216.009 137.176 215.76 137.151 215.503 137.126C214.241 136.967 213.027 136.646 211.798 136.327C211.548 136.263 211.299 136.2 211.042 136.134C210.248 135.93 209.454 135.725 208.66 135.52C208.133 135.385 207.606 135.25 207.079 135.115C204.733 134.513 202.388 133.907 200.049 133.278C199.474 133.124 198.899 132.971 198.324 132.819C197.523 132.607 196.724 132.392 195.926 132.174C195.602 132.087 195.279 132 194.955 131.916C194.475 131.79 193.998 131.659 193.52 131.528C193.241 131.453 192.962 131.378 192.675 131.301C191.508 130.842 190.763 130.212 190.059 129.157C189.929 127.587 190.16 126.41 191.208 125.164C192.052 124.478 192.926 124.468 193.966 124.561C194.813 124.719 195.645 124.924 196.48 125.135C196.703 125.19 196.926 125.245 197.155 125.301C197.702 125.436 198.247 125.572 198.792 125.71C198.821 125.535 198.849 125.359 198.878 125.179C199.203 123.193 199.554 121.174 201.263 119.893C202.821 119.417 204.497 119.86 206.046 120.18C206.463 120.264 206.88 120.347 207.297 120.43C207.492 120.469 207.688 120.508 207.889 120.549C208.608 120.685 209.328 120.789 210.054 120.884C210.087 120.737 210.12 120.59 210.154 120.438C210.283 119.964 210.283 119.964 210.513 119.735C210.61 118.732 210.62 117.725 210.642 116.718C210.657 116.437 210.671 116.155 210.686 115.865C210.745 114.334 210.745 114.334 210.111 112.996C209.628 112.566 209.628 112.566 209.117 112.229C208.399 111.729 208.139 111.143 207.985 110.312C207.782 108.298 208.038 106.269 208.258 104.265C208.281 104.032 208.304 103.799 208.328 103.559C208.555 101.694 209.117 100.128 210.499 98.8068C211.707 98.0192 213.273 98.2756 214.65 98.3615C214.697 98.2288 214.745 98.0961 214.794 97.9593C215.11 97.4423 215.11 97.4423 215.801 97.0652C216.671 96.3793 216.709 95.9503 216.855 94.89C216.876 94.6895 216.897 94.4889 216.919 94.2823C216.946 94.0781 216.973 93.874 217 93.6637C217.065 93.1617 217.124 92.6597 217.178 92.1564C217.037 92.1236 216.896 92.0906 216.751 92.0567C213.611 91.2276 210.504 88.3666 208.215 86.1812C208.077 86.0579 207.939 85.9347 207.798 85.8077C206.899 84.9733 206.174 84.0278 205.457 83.0356C205.367 82.9115 205.277 82.7875 205.185 82.6597C204.732 82.0172 204.327 81.392 203.973 80.6879C202.975 78.749 201.967 77.9819 199.999 77.1034C199.484 76.8544 198.969 76.604 198.455 76.352C198.201 76.2289 197.947 76.1057 197.686 75.9789C189.121 71.6559 182.671 64.6399 179.631 55.5149C179.422 54.8612 179.223 54.2052 179.028 53.5471C178.958 53.3154 178.888 53.0837 178.815 52.8451C178.627 52.1631 178.477 51.4832 178.339 50.7893C178.308 50.6411 178.276 50.4929 178.244 50.3402C176.976 44.0599 176.641 35.5159 179.488 29.646C180.58 28.0212 181.961 26.7562 183.854 26.1988C186.428 25.9488 188.793 26.4335 191.28 27.0319C191.642 27.1159 192.004 27.1995 192.366 27.2828C193.267 27.4908 194.166 27.7028 195.065 27.9165C196.123 28.1673 197.182 28.4138 198.241 28.6598C198.75 28.7781 199.257 28.8979 199.765 29.0191C199.989 29.0719 200.213 29.1248 200.444 29.1792C200.637 29.2253 200.83 29.2713 201.029 29.3188C201.612 29.4443 201.612 29.4443 202.47 29.4162C202.323 29.2408 202.176 29.0655 202.024 28.8848C201.275 27.9081 201.258 27.1745 201.32 25.9689C201.446 25.327 201.627 24.7109 201.823 24.0873C201.868 23.9269 201.914 23.7665 201.96 23.6012C202.359 22.312 202.921 21.7935 204.044 21.1163C205.725 20.4246 208.182 21.3611 209.867 21.7748Z" fill="#FFDD00"/>
<path d="M282.101 82.519C285.224 83.4086 287.955 85.6179 290.49 87.5607C290.673 87.6892 290.857 87.8178 291.046 87.9503C291.166 88.0492 291.286 88.1482 291.409 88.2501C291.409 88.4018 291.409 88.5535 291.409 88.7098C291.612 88.8 291.612 88.8 291.819 88.892C292.355 89.1842 292.697 89.4917 293.118 89.9307C293.257 90.0732 293.395 90.2157 293.537 90.3625C293.735 90.5682 293.735 90.5682 293.937 90.7781C294.146 90.9867 294.354 91.1952 294.569 91.4101C294.74 91.5808 294.91 91.7514 295.086 91.9272C295.292 92.1192 295.292 92.1192 295.503 92.315C295.775 92.6167 295.775 92.6167 295.775 93.0763C295.927 93.0763 296.079 93.0763 296.235 93.0763C296.641 93.5606 297.015 94.0443 297.384 94.5557C297.495 94.7088 297.607 94.8618 297.721 95.0194C298.548 96.1769 299.305 97.367 300.027 98.5919C300.121 98.7511 300.215 98.9104 300.312 99.0744C300.867 100.038 301.327 101.009 301.751 102.039C301.89 102.356 302.031 102.673 302.172 102.99C303.98 107.115 305.092 111.3 305.995 115.704C306.109 116.25 306.232 116.794 306.357 117.337C306.599 118.417 306.773 119.503 306.936 120.597C306.965 120.782 306.994 120.967 307.024 121.157C307.517 124.442 307.552 127.725 307.554 131.039C307.554 131.392 307.554 131.392 307.554 131.752C307.55 135.376 307.43 138.909 306.807 142.487C306.766 142.724 306.725 142.962 306.684 143.206C305.778 148.351 304.431 153.285 302.44 158.115C302.369 158.29 302.297 158.465 302.223 158.646C299.27 165.792 295.011 172.571 289.92 178.386C289.649 178.705 289.385 179.03 289.124 179.357C287.829 180.978 286.436 182.455 284.96 183.912C284.741 184.13 284.522 184.349 284.304 184.567C283.109 185.755 281.894 186.902 280.608 187.991C280.381 188.185 280.155 188.379 279.922 188.578C278.352 189.895 276.75 191.153 275.092 192.358C274.952 192.46 274.812 192.562 274.668 192.668C264.724 199.919 253.789 204.896 241.768 207.526C241.432 207.604 241.096 207.682 240.759 207.761C229.069 210.273 216.369 208.464 204.805 206.283C203.725 206.079 202.645 205.876 201.565 205.673C201.295 205.622 201.025 205.571 200.746 205.519C193.663 204.19 186.717 203.342 179.502 203.374C179.053 203.376 178.603 203.377 178.154 203.378C177.067 203.38 175.979 203.384 174.891 203.389C174.872 200.413 174.929 197.444 175.026 194.47C175.04 194.015 175.055 193.56 175.069 193.106C175.099 192.155 175.13 191.204 175.161 190.253C175.199 189.067 175.237 187.881 175.273 186.695C175.471 180.383 175.727 174.075 176.04 167.767C177.118 168.112 178.07 168.555 179.057 169.103C190.463 175.256 202.936 179.112 215.569 181.786C215.914 181.859 215.914 181.859 216.265 181.934C221.167 182.932 226.983 183.473 231.358 180.703C231.875 180.325 232.339 179.926 232.805 179.488C232.943 179.371 233.08 179.254 233.222 179.133C235.447 177.122 236.681 174.228 237.632 171.444C237.696 171.256 237.761 171.068 237.828 170.875C241.197 160.889 240.87 150.219 240.088 139.83C240.074 139.65 240.061 139.469 240.047 139.284C239.783 135.895 239.232 132.634 238.323 129.357C236.713 123.18 235.761 116.646 235.786 110.27C235.787 110.023 235.788 109.775 235.789 109.521C235.796 108.275 235.811 107.03 235.838 105.784C235.842 105.551 235.845 105.317 235.849 105.077C235.855 104.637 235.865 104.198 235.88 103.759C235.895 102.392 235.681 101.33 234.874 100.201C234.285 99.7384 234.285 99.7384 233.725 99.5112C233.757 99.1424 233.791 98.7738 233.825 98.4052C233.844 98.1999 233.863 97.9946 233.882 97.7831C233.955 97.213 233.955 97.213 234.184 96.5236C234.332 96.5202 234.48 96.5169 234.632 96.5134C241.279 96.3457 247.52 95.1539 252.96 91.0672C253.999 90.3569 254.893 90.2976 256.127 90.2278C264.64 89.7004 273.837 88.431 280.631 82.7655C281.17 82.4435 281.484 82.4495 282.101 82.519Z" fill="#F2E8FE"/>
<path d="M179.488 55.1562C179.855 55.7079 180.088 56.1428 180.33 56.747C180.402 56.9241 180.473 57.1013 180.548 57.2837C180.624 57.4728 180.701 57.6618 180.78 57.8566C182.132 61.1072 183.664 63.9391 185.922 66.6471C186.17 66.948 186.17 66.948 186.423 67.2549C189.511 70.8461 193.527 73.3516 197.6 75.6818C197.804 75.799 198.009 75.9163 198.219 76.037C199.079 76.5244 199.933 76.9984 200.838 77.3983C202.785 78.2886 203.52 79.3233 204.499 81.1454C206.979 85.7567 212.145 90.4795 217.178 92.1569C217.244 93.6217 217.199 95.1293 216.718 96.5234C216.273 97.0052 215.849 97.3178 215.288 97.6528C214.842 97.8756 214.842 97.8756 214.65 98.362C214.143 98.4034 213.635 98.4236 213.127 98.4338C211.682 98.5219 210.801 98.6585 209.823 99.7409C208.884 101.139 208.677 102.606 208.502 104.251C208.474 104.495 208.447 104.739 208.418 104.99C207.858 108.747 207.858 108.747 209.134 112.151C209.409 112.336 209.686 112.518 209.964 112.696C210.552 113.189 210.725 113.444 210.884 114.204C210.926 115.024 210.917 115.827 210.886 116.647C210.885 116.927 210.883 117.207 210.882 117.496C210.84 119.75 210.84 119.75 210.053 120.884C208.37 120.81 206.784 120.672 205.141 120.295C203.048 119.794 203.048 119.794 201.019 120.338C199.886 121.34 199.562 122.655 199.209 124.073C199.168 124.231 199.127 124.389 199.085 124.552C198.986 124.938 198.889 125.324 198.792 125.71C196.175 125.294 196.175 125.294 194.928 124.992C193.797 124.736 192.812 124.585 191.725 125.078C190.92 125.705 190.431 126.296 190.289 127.319C190.137 128.683 190.137 128.683 190.773 129.871C193.759 133.213 203.416 133.896 207.626 134.96C208.461 135.172 209.297 135.383 210.132 135.595C210.645 135.725 211.157 135.855 211.67 135.984C213.204 136.373 214.733 136.779 216.258 137.201C215.823 138.562 215.336 139.885 214.78 141.201C214.706 141.376 214.633 141.551 214.558 141.732C214.326 142.285 214.093 142.839 213.86 143.392C213.553 144.122 213.247 144.852 212.941 145.581C212.832 145.841 212.832 145.841 212.721 146.106C212.202 147.346 211.693 148.59 211.202 149.841C209.359 149.365 207.696 148.636 205.988 147.802C205.718 147.67 205.447 147.538 205.168 147.402C198.917 144.339 193.206 140.497 187.497 136.54C186.592 135.914 185.684 135.291 184.773 134.673C184.623 134.571 184.472 134.468 184.316 134.363C176.712 129.234 168.253 125.186 159.034 124.331C158.596 124.287 158.157 124.242 157.719 124.197C154.714 123.886 151.707 123.615 148.692 123.412C148.616 123.64 148.54 123.867 148.462 124.102C148.462 123.798 148.462 123.495 148.462 123.182C148.231 123.168 148.001 123.154 147.763 123.14C145.773 123.019 143.785 122.883 141.797 122.723C141.791 122.057 141.787 121.392 141.783 120.726C141.781 120.538 141.779 120.351 141.777 120.157C141.769 118.114 141.769 118.114 142.027 117.437C142.538 117.029 142.538 117.029 143.191 116.661C147.336 114.163 149.624 110.183 150.811 105.581C152.757 97.0471 150.859 88.0569 148.597 79.7855C148.552 79.621 148.508 79.4566 148.462 79.2871C148.391 79.0431 148.391 79.0431 148.319 78.7941C148.197 78.1916 148.393 77.8772 148.663 77.3337C149.6 75.4216 149.73 73.1898 149.16 71.134C148.99 70.6748 148.811 70.2192 148.618 69.7694C148.418 69.0054 148.571 68.7232 148.922 68.026C149.113 67.5808 149.305 67.1355 149.496 66.6902C149.642 66.3538 149.642 66.3538 149.791 66.0106C150.378 64.4534 150.606 63.0108 150.674 61.3613C150.683 61.1833 150.692 61.0052 150.701 60.8218C150.722 60.3889 150.742 59.9558 150.76 59.5228C159.279 56.6154 167.416 55.2612 176.417 55.3394C176.683 55.3409 176.683 55.3409 176.953 55.3425C177.825 55.3539 178.64 55.407 179.488 55.6159C179.488 55.4642 179.488 55.3125 179.488 55.1562Z" fill="#F2E8FE"/>
<path d="M91.1868 129.913C94.8898 132.763 96.6784 137.37 97.6729 141.797C97.7764 142.224 97.7764 142.224 97.882 142.659C98.941 147.512 98.7969 153.292 97.6729 158.114C97.5769 158.546 97.5769 158.546 97.4789 158.987C95.9979 165.033 92.9507 172.662 87.3432 176.083C87.1961 176.171 87.049 176.259 86.8975 176.349C86.4875 176.616 86.4875 176.616 86.182 176.959C86.071 177.699 86.0659 178.173 86.1532 178.898C86.1804 179.182 86.1804 179.182 86.2081 179.473C86.3229 180.666 86.4433 181.859 86.5717 183.051C86.8995 186.135 87.1698 189.212 87.3454 192.308C87.3546 192.467 87.3637 192.627 87.3731 192.791C87.4567 194.255 87.537 195.719 87.6136 197.183C87.6564 197.999 87.7023 198.815 87.7501 199.63C87.7757 200.083 87.7979 200.535 87.8199 200.988C87.8361 201.26 87.8522 201.532 87.8688 201.813C87.8815 202.051 87.8942 202.29 87.9073 202.535C88.0326 203.224 88.2483 203.56 88.71 204.077C89.7161 203.858 90.7201 203.633 91.7209 203.39C91.8894 203.35 92.0578 203.309 92.2313 203.268C92.5674 203.187 92.9033 203.105 93.2389 203.022C99.8832 201.426 108.026 202.172 113.967 205.685C116.103 207.066 116.103 207.066 116.414 208.223C116.468 209.034 116.308 209.559 115.9 210.254C115.153 210.94 114.585 211.185 113.573 211.23C113.407 211.221 113.242 211.211 113.071 211.202C113.675 211.823 114.278 212.409 114.952 212.954C115.574 213.479 116.003 213.845 116.135 214.669C116.151 215.552 116.128 216.123 115.714 216.918C114.907 217.604 113.92 218.096 112.841 218.096C112.955 218.253 113.068 218.409 113.186 218.57C113.62 219.421 113.663 219.908 113.53 220.854C112.893 221.819 112.36 222.404 111.232 222.692C110.619 222.79 110.012 222.859 109.394 222.922C109.471 223.051 109.549 223.181 109.629 223.314C109.892 223.933 109.864 224.274 109.767 224.933C109.742 225.117 109.716 225.301 109.69 225.49C109.668 225.628 109.646 225.767 109.623 225.91C106.859 227.384 103.639 226.318 100.732 225.752C100.285 225.666 99.8376 225.581 99.3903 225.495C98.5161 225.328 97.6422 225.158 96.7686 224.988C95.8265 224.803 94.8836 224.625 93.9401 224.448C88.782 223.457 83.8604 221.817 79.0576 219.705C78.7244 219.56 78.7244 219.56 78.3846 219.411C73.7582 217.382 69.327 215.019 65.0387 212.351C64.848 212.233 64.6572 212.115 64.4607 211.993C61.7768 210.331 59.1877 208.602 56.6917 206.669C56.1388 206.248 55.5682 205.854 54.9986 205.456C53.6026 204.447 52.3614 203.284 51.1195 202.094C50.8397 201.826 50.5566 201.562 50.273 201.299C45.9763 197.201 42.6667 191.166 42.4538 185.192C42.3885 181.949 42.4868 179.077 43.6657 176.039C43.7223 175.887 43.7789 175.735 43.8373 175.578C45.4349 171.346 48.1162 167.695 50.79 164.089C51.0542 163.73 51.3181 163.371 51.5818 163.012C52.5236 161.73 53.469 160.451 54.4144 159.172C55.8626 157.212 57.307 155.249 58.7331 153.273C58.8552 153.104 58.9772 152.935 59.1029 152.761C59.7286 151.893 60.3525 151.024 60.9747 150.154C63.0791 147.215 65.2125 144.356 67.6879 141.719C68.148 141.224 68.5853 140.721 69.0175 140.202C73.0493 135.586 85.0268 125.532 91.1868 129.913Z" fill="#FED397"/>
<path d="M145.934 51.4786C148.263 52.8749 149.9 54.8634 150.573 57.4969C151.184 60.9141 151.093 64.7587 149.166 67.7382C148.79 68.3493 148.678 68.5983 148.764 69.3191C148.94 69.9013 149.15 70.4511 149.381 71.0131C150.129 73.3302 149.617 75.7479 148.692 77.9076C148.442 78.6499 148.479 79.0902 148.709 79.835C148.767 80.0297 148.825 80.2244 148.885 80.425C148.949 80.6323 149.014 80.8397 149.08 81.0533C149.21 81.4912 149.339 81.9292 149.467 82.3675C149.531 82.5853 149.595 82.803 149.661 83.0274C150.79 86.962 151.573 91.0473 151.679 95.144C151.686 95.377 151.692 95.6101 151.698 95.8502C151.866 103.222 150.965 109.6 145.704 115.138C145.12 115.655 144.521 116.097 143.866 116.517C143.733 116.611 143.6 116.705 143.463 116.802C142.557 117.436 142.557 117.436 142.027 117.436C141.951 119.181 141.875 120.925 141.797 122.722C142.423 122.708 142.423 122.708 143.061 122.693C144.887 122.689 146.659 122.922 148.462 123.182C149.372 126.326 148.305 129.813 146.853 132.604C146.297 133.499 145.682 134.318 145.015 135.132C144.854 135.334 144.692 135.535 144.526 135.743C143.324 137.169 142.054 138.151 140.418 139.039C140.074 139.228 140.074 139.228 139.723 139.42C134.175 142.218 127.461 141.41 121.731 139.571C117.623 138.162 114.139 135.811 111.002 132.834C110.798 132.643 110.595 132.451 110.385 132.254C108.85 130.769 107.523 129.185 106.241 127.48C105.954 127.1 105.663 126.723 105.37 126.346C105.2 126.122 105.03 125.898 104.854 125.667C104.704 125.469 104.553 125.271 104.398 125.068C104.302 124.9 104.206 124.733 104.107 124.561C104.183 124.333 104.259 124.106 104.337 123.871C104.882 123.701 104.882 123.701 105.587 123.57C107.446 123.138 109.005 122.449 110.169 120.884C111.31 118.943 111.706 116.773 111.93 114.564C111.949 114.378 111.968 114.191 111.988 113.999C112.224 111.573 112.313 109.141 112.409 106.707C112.429 106.228 112.449 105.75 112.469 105.272C112.518 104.117 112.565 102.963 112.61 101.809C112.425 101.814 112.24 101.819 112.05 101.824C111.682 101.83 111.682 101.83 111.307 101.836C111.065 101.842 110.823 101.847 110.574 101.852C108.915 101.752 107.695 100.89 106.563 99.7259C104.508 97.2467 104.103 94.3378 104.337 91.2371C104.567 90.5264 104.857 90.0398 105.256 89.3985C105.495 88.8785 105.495 88.8785 105.486 88.2494C105.193 87.6337 104.895 87.0873 104.538 86.5114C104.344 86.1811 104.151 85.8501 103.959 85.5185C103.865 85.3567 103.771 85.1949 103.675 85.0282C101.555 81.2695 100.732 76.6873 101.509 72.4369C102.193 69.9959 103.458 67.7541 105.486 66.1869C105.884 66.0053 106.287 65.8329 106.693 65.6698C107.426 65.337 107.717 65.174 108.078 64.4435C108.22 63.969 108.354 63.4921 108.482 63.0135C109.302 60.3017 111.458 58.2929 113.86 56.9224C116.95 55.3556 119.936 54.8431 123.383 54.8828C123.633 54.8829 123.883 54.8831 124.141 54.8832C125.306 54.8896 126.401 54.9396 127.549 55.1557C130.933 55.4082 133.107 54.7027 135.866 52.7004C139.055 50.4097 142.286 49.8913 145.934 51.4786Z" fill="#FED397"/>
<path d="M160.873 124.332C169.203 125.446 177.239 129.184 184.084 133.984C184.519 134.272 184.955 134.56 185.391 134.846C186.526 135.602 187.641 136.384 188.752 137.173C190.545 138.443 192.35 139.687 194.196 140.879C194.369 140.99 194.542 141.102 194.72 141.217C198.924 143.914 203.283 146.342 207.827 148.42C208.036 148.515 208.244 148.61 208.459 148.709C209.378 149.118 210.206 149.438 211.203 149.612C211.301 149.346 211.399 149.081 211.5 148.807C212.001 147.462 212.518 146.123 213.041 144.786C213.099 144.637 213.158 144.488 213.218 144.334C213.599 143.361 213.987 142.39 214.381 141.422C214.512 141.098 214.642 140.774 214.77 140.449C214.952 139.988 215.139 139.53 215.328 139.073C215.435 138.806 215.543 138.54 215.653 138.265C216.029 137.661 216.029 137.661 216.563 137.441C217.268 137.43 217.847 137.534 218.532 137.705C218.8 137.77 219.069 137.835 219.345 137.902C219.635 137.974 219.925 138.047 220.223 138.121C220.844 138.272 221.466 138.421 222.088 138.57C222.25 138.609 222.411 138.647 222.577 138.687C224.4 139.123 226.232 139.515 228.066 139.902C228.219 139.935 228.373 139.968 228.531 140.001C230.23 140.362 231.932 140.709 233.638 141.034C234.078 141.118 234.078 141.118 234.528 141.204C236.474 141.533 236.474 141.533 238.307 140.979C239.133 140.003 239.51 138.915 239.7 137.661C243.355 143.144 241.042 158.123 239.827 164.358C238.479 170.518 236.643 177.563 230.996 181.183C228.632 182.454 226.456 182.861 223.785 182.821C223.483 182.818 223.18 182.815 222.869 182.812C220.062 182.765 217.389 182.374 214.65 181.786C214.378 181.73 214.107 181.673 213.827 181.615C201.183 178.954 187.122 175.002 176.27 167.768C176.201 167.188 176.174 166.661 176.177 166.081C176.172 165.727 176.168 165.373 176.163 165.019C176.162 164.832 176.161 164.646 176.16 164.454C176.064 151.762 172.952 139.858 165.239 129.618C165.076 129.401 164.913 129.185 164.745 128.962C163.787 127.731 162.745 126.582 161.678 125.445C160.873 124.585 160.873 124.585 160.873 124.332Z" fill="#FED397"/>
<path d="M103.418 84.5723C103.987 85.3046 104.486 86.0646 104.969 86.8561C105.188 87.2076 105.188 87.2076 105.411 87.5662C105.754 88.3357 105.765 88.6167 105.486 89.3984C105.33 89.6497 105.173 89.9009 105.012 90.1597C104.068 91.988 104.359 94.4857 104.94 96.3935C105.796 98.6002 107.026 100.341 109.216 101.357C109.927 101.605 110.553 101.673 111.303 101.722C111.549 101.74 111.794 101.757 112.047 101.774C112.326 101.791 112.326 101.791 112.61 101.809C112.673 106.047 112.561 110.228 112.151 114.449C112.134 114.627 112.116 114.805 112.099 114.989C111.836 117.556 111.291 120.159 109.393 122.033C107.361 123.676 104.793 124.17 102.269 124.545C100.175 124.857 98.1501 125.342 96.1066 125.896C95.83 125.97 95.5534 126.043 95.2684 126.119C93.6011 126.582 92.0658 127.169 90.5095 127.926C89.1314 128.585 87.6832 129.046 86.2289 129.506C80.9255 131.197 76.3067 133.695 72.1624 137.43C71.9288 137.636 71.6951 137.842 71.4613 138.047C66.7386 142.239 63.1181 147.398 59.4809 152.521C58.1411 154.404 56.7595 156.256 55.3857 158.114C51.4084 163.435 51.4084 163.435 47.6617 168.917C47.5562 169.068 47.4508 169.219 47.3421 169.375C47.2663 169.375 47.1904 169.375 47.1123 169.375C46.9215 168.323 46.7338 167.27 46.5484 166.216C46.4854 165.86 46.4217 165.505 46.3572 165.149C45.5216 160.54 45.1915 155.971 45.2012 151.288C45.2019 150.561 45.1965 149.834 45.1907 149.107C45.1698 142.28 46.2839 135.455 48.2614 128.927C48.3092 128.765 48.3569 128.602 48.4061 128.435C49.9668 123.218 52.7028 118.177 55.8454 113.759C55.9434 113.62 56.0414 113.481 56.1424 113.337C57.171 111.885 58.2894 110.54 59.4946 109.233C59.9405 108.748 60.3721 108.255 60.8008 107.755C61.6294 106.806 62.4754 105.851 63.4294 105.026C63.581 105.026 63.7327 105.026 63.889 105.026C63.889 104.874 63.889 104.723 63.889 104.566C68.0136 100.665 73.1909 97.6246 78.1377 94.9141C78.4843 94.7238 78.4843 94.7238 78.8379 94.5296C96.282 85.0319 96.282 85.0319 103.418 85.0319C103.418 84.8802 103.418 84.7285 103.418 84.5723Z" fill="#F2E8FE"/>
<path d="M209.867 21.7748C212.021 22.2968 214.182 22.7649 216.353 23.2136C219.01 23.7632 221.664 24.3334 224.317 24.906C224.571 24.961 224.826 25.0159 225.089 25.0725C228.367 25.7793 231.641 26.5009 234.91 27.2498C237.253 27.7828 239.605 28.2655 241.96 28.7436C243.862 29.1302 245.758 29.5282 247.643 29.9908C249.736 30.504 251.84 30.9547 253.949 31.3975C256.031 31.8347 258.111 32.2777 260.19 32.7315C260.411 32.7797 260.632 32.828 260.859 32.8777C261.765 33.0756 262.671 33.2736 263.577 33.4721C265.894 33.9794 268.211 34.4811 270.537 34.9444C270.808 34.9987 270.808 34.9987 271.085 35.0542C271.919 35.221 272.753 35.3853 273.589 35.545C277.495 36.3195 277.495 36.3195 278.783 37.6178C279.546 38.9218 279.362 39.9638 279.009 41.3578C278.917 41.6869 278.822 42.0155 278.726 42.3435C278.681 42.501 278.636 42.6586 278.59 42.8209C278.246 43.9004 277.807 44.5584 276.93 45.2736C276.169 45.4604 276.169 45.4604 275.552 45.5034C275.552 45.6551 275.552 45.8068 275.552 45.9631C275.742 45.9814 275.742 45.9814 275.937 46.0001C277.153 46.125 278.335 46.3136 279.53 46.569C279.706 46.6058 279.881 46.6426 280.062 46.6804C280.627 46.7992 281.192 46.9196 281.757 47.0404C282.046 47.1019 282.046 47.1019 282.341 47.1647C284.784 47.6847 287.225 48.2117 289.657 48.7784C289.993 48.8546 289.993 48.8546 290.337 48.9325C292.63 49.4807 294.563 50.3447 295.842 52.4186C297.42 55.4663 296.571 58.5669 295.604 61.6849C294.743 64.387 293.683 66.9152 292.328 69.4045C292.253 69.5448 292.178 69.6852 292.101 69.8298C291.039 71.8121 289.819 73.6175 288.421 75.3797C288.189 75.6828 288.189 75.6828 287.952 75.992C283.637 81.4807 278.177 85.3748 271.645 87.7899C271.237 87.9485 271.237 87.9485 270.821 88.1104C268.254 89.0482 265.606 89.4566 262.912 89.8583C262.644 89.8996 262.644 89.8996 262.371 89.9419C259.639 90.3558 256.937 90.3664 254.179 90.3179C254.33 90.2421 254.482 90.1662 254.638 90.0881C254.731 89.889 254.731 89.889 254.825 89.6859C255.267 88.8484 255.974 88.2708 256.666 87.6346C257.64 86.7104 258.249 85.8801 258.875 84.6874C259.337 83.9692 259.337 83.9692 259.924 83.4234C260.901 83.2546 261.771 83.3113 262.754 83.3803C268.489 83.7448 274.937 80.043 279.142 76.4777C279.716 75.9677 280.278 75.4472 280.837 74.9201C280.99 74.7821 281.143 74.644 281.301 74.5018C285.695 70.3755 290.184 62.804 290.589 56.7187C290.575 55.8489 290.575 55.8489 290.065 55.3665C289.039 54.7424 288.016 54.575 286.844 54.3577C286.599 54.3096 286.355 54.2616 286.103 54.212C285.32 54.0591 284.537 53.9107 283.753 53.7625C283.236 53.6621 282.719 53.5614 282.201 53.4604C280.367 53.1037 278.533 52.7484 276.693 52.4196C276.523 52.3889 276.352 52.3581 276.177 52.3264C275.738 52.2477 275.299 52.1708 274.859 52.0942C274.173 51.9383 274.173 51.9383 273.253 51.4787C273.329 50.6445 273.405 49.8102 273.483 48.9507C273.127 48.8838 272.77 48.8168 272.402 48.7478C266.867 47.7011 261.374 46.5004 255.888 45.2226C253.58 44.6854 251.273 44.1673 248.946 43.7198C247.746 43.4876 246.564 43.2102 245.38 42.9057C243.407 42.4001 241.421 41.9467 239.436 41.4867C239.203 41.4326 239.203 41.4326 238.965 41.3775C238.805 41.3405 238.645 41.3035 238.481 41.2654C237.402 41.015 236.323 40.761 235.245 40.5051C229.52 39.147 223.779 37.91 218.01 36.7539C216.678 36.4868 215.348 36.2142 214.018 35.9373C213.817 35.8954 213.615 35.8534 213.408 35.8103C210.293 35.1571 207.186 34.4674 204.078 33.7827C203.927 34.4653 203.775 35.1479 203.619 35.8511C201.97 35.9206 200.572 35.6745 198.979 35.2622C198.473 35.1359 197.967 35.01 197.461 34.8843C197.194 34.8174 196.928 34.7506 196.653 34.6817C195.298 34.3471 193.94 34.0311 192.581 33.7156C192.138 33.6127 191.695 33.5094 191.252 33.4061C188.383 32.5669 188.383 32.5669 185.463 32.4038C184.695 32.8942 184.551 33.2983 184.285 34.1706C184.212 34.5765 184.146 34.9837 184.084 35.3915C184.041 35.6507 183.999 35.9099 183.955 36.177C182.78 44.4448 183.798 53.9176 188.834 60.8411C191.141 63.9057 193.835 66.2329 197.126 68.1979C197.273 68.2868 197.42 68.3756 197.571 68.4671C198.169 68.8242 198.755 69.1586 199.396 69.4305C199.952 69.679 200.251 69.844 200.631 70.3238C200.886 71.2228 201.028 72.1057 201.156 73.0295C201.329 74.2032 201.754 75.2426 202.22 76.3295C202.478 77.0103 202.603 77.6474 202.699 78.3674C194.756 76.0183 186.49 69.2111 182.475 62.0503C181.016 59.3225 179.905 56.5105 179.028 53.5471C178.958 53.3154 178.888 53.0837 178.815 52.845C178.627 52.1631 178.477 51.4832 178.339 50.7893C178.308 50.6411 178.276 50.4929 178.244 50.3402C176.976 44.0599 176.641 35.5159 179.488 29.646C180.58 28.0212 181.961 26.7562 183.854 26.1988C186.428 25.9488 188.793 26.4335 191.28 27.0319C191.642 27.1158 192.004 27.1995 192.366 27.2828C193.267 27.4908 194.166 27.7028 195.065 27.9165C196.123 28.1673 197.182 28.4138 198.241 28.6598C198.75 28.7781 199.257 28.8978 199.765 29.0191C200.101 29.0983 200.101 29.0983 200.444 29.1792C200.637 29.2253 200.83 29.2713 201.029 29.3188C201.612 29.4443 201.612 29.4443 202.47 29.4162C202.323 29.2408 202.176 29.0655 202.024 28.8848C201.275 27.9081 201.258 27.1745 201.32 25.9689C201.446 25.327 201.627 24.7109 201.823 24.0873C201.891 23.8467 201.891 23.8467 201.96 23.6012C202.359 22.312 202.921 21.7935 204.044 21.1163C205.725 20.4246 208.182 21.3611 209.867 21.7748Z" fill="#EFBD01"/>
<path d="M222.737 97.1611C223.009 97.2005 223.282 97.2399 223.563 97.2805C224.133 97.3631 224.703 97.4464 225.273 97.5302C226.145 97.6581 227.017 97.7834 227.889 97.9084C228.446 97.9895 229.003 98.0708 229.559 98.1522C229.819 98.1893 230.078 98.2264 230.345 98.2647C231.515 98.4384 232.618 98.6159 233.725 99.0508C233.725 99.2025 233.725 99.3542 233.725 99.5104C233.981 99.5815 233.981 99.5815 234.242 99.6541C235.066 100.066 235.342 100.559 235.793 101.349C236.008 101.994 236.048 102.36 236.038 103.024C236.036 103.223 236.034 103.423 236.032 103.628C236.028 103.845 236.025 104.061 236.021 104.285C236.017 104.75 236.012 105.216 236.008 105.682C236.004 106.049 236.004 106.049 236.001 106.423C235.929 115.095 236.879 123.611 239.241 131.978C239.962 134.667 240.354 137.332 239.241 139.958C238.807 140.633 238.362 141.202 237.632 141.567C236.285 141.717 234.99 141.527 233.667 141.274C233.508 141.243 233.349 141.212 233.185 141.181C231.477 140.849 229.775 140.486 228.074 140.116C227.557 140.003 227.039 139.892 226.522 139.78C221.072 138.602 215.658 137.295 210.257 135.915C209.617 135.751 208.977 135.588 208.336 135.425C207.555 135.227 206.774 135.028 205.993 134.829C205.713 134.757 205.433 134.686 205.144 134.613C203.177 134.11 201.214 133.589 199.252 133.064C198.904 132.972 198.556 132.88 198.208 132.788C197.446 132.586 196.686 132.381 195.926 132.174C195.603 132.086 195.279 132 194.955 131.915C194.476 131.79 193.998 131.659 193.52 131.528C193.241 131.453 192.962 131.378 192.675 131.301C191.508 130.842 190.763 130.212 190.06 129.157C189.929 127.587 190.16 126.409 191.209 125.164C192.052 124.478 192.926 124.468 193.966 124.561C194.813 124.718 195.645 124.924 196.48 125.135C196.703 125.19 196.926 125.245 197.156 125.301C197.702 125.436 198.247 125.572 198.793 125.71C198.821 125.534 198.849 125.359 198.878 125.179C199.204 123.193 199.554 121.174 201.263 119.892C202.821 119.416 204.497 119.86 206.046 120.18C206.463 120.263 206.88 120.347 207.297 120.43C207.492 120.469 207.688 120.508 207.889 120.549C208.609 120.685 209.328 120.789 210.054 120.883C210.087 120.737 210.12 120.59 210.154 120.438C210.283 119.964 210.283 119.964 210.513 119.734C210.611 118.731 210.62 117.725 210.643 116.718C210.657 116.437 210.671 116.155 210.686 115.865C210.746 114.334 210.746 114.334 210.111 112.996C209.628 112.566 209.628 112.566 209.117 112.229C208.399 111.728 208.139 111.142 207.985 110.312C207.782 108.297 208.038 106.268 208.258 104.265C208.281 104.032 208.305 103.799 208.328 103.559C208.555 101.694 209.117 100.128 210.499 98.8066C211.707 98.019 213.273 98.2754 214.65 98.3613C214.715 98.2206 214.78 98.0799 214.848 97.9349C216.218 95.3588 220.411 96.819 222.737 97.1611Z" fill="#FED397"/>
<path d="M145.934 51.4786C148.263 52.8749 149.9 54.8634 150.573 57.4969C151.184 60.9141 151.093 64.7587 149.166 67.7382C148.79 68.3493 148.678 68.5983 148.764 69.3191C148.94 69.9013 149.15 70.4511 149.381 71.0131C150.049 73.0813 149.722 75.4738 148.96 77.4534C148.692 77.9076 148.692 77.9076 148.002 78.1374C147.956 77.9706 147.91 77.8038 147.862 77.6319C147.651 76.8715 147.439 76.1112 147.227 75.3509C147.154 75.0884 147.081 74.826 147.006 74.5555C146.935 74.3007 146.864 74.046 146.79 73.7835C146.725 73.55 146.66 73.3165 146.593 73.076C146.391 72.3819 146.167 71.6976 145.934 71.0131C145.814 71.0549 145.694 71.0966 145.57 71.1397C140.406 72.9035 135.249 73.2323 129.841 73.4484C129.158 73.4763 128.476 73.5066 127.793 73.5369C126.963 73.5737 126.134 73.6091 125.304 73.6443C125.004 73.6572 124.704 73.6702 124.394 73.6835C122.38 73.7641 120.372 73.7851 118.356 73.7709C118.432 73.9984 118.508 74.2259 118.586 74.4604C118.831 79.164 118.325 84.3036 115.138 88.0196C114.463 88.6229 114.463 88.6229 113.989 88.9389C113.418 88.7135 112.851 88.484 112.29 88.2333C110.664 87.5239 109.446 87.2576 107.727 87.876C107.118 88.1251 106.532 88.4107 105.946 88.7091C102.467 84.2845 100.939 78.8948 101.349 73.3113C101.842 70.5373 103.235 67.9268 105.486 66.1869C105.884 66.0053 106.287 65.8329 106.693 65.6698C107.426 65.337 107.717 65.174 108.078 64.4435C108.22 63.969 108.354 63.4921 108.482 63.0135C109.302 60.3017 111.458 58.2929 113.86 56.9224C116.95 55.3556 119.936 54.8431 123.383 54.8828C123.633 54.8829 123.883 54.8831 124.141 54.8832C125.306 54.8896 126.401 54.9396 127.549 55.1557C130.933 55.4082 133.107 54.7027 135.866 52.7004C139.055 50.4097 142.286 49.8913 145.934 51.4786Z" fill="#05001D"/>
<path d="M209.867 21.7748C212.021 22.2968 214.182 22.7649 216.352 23.2136C219.01 23.7632 221.663 24.3334 224.316 24.906C224.571 24.961 224.826 25.0159 225.089 25.0725C228.367 25.7793 231.641 26.5009 234.909 27.2498C237.253 27.7828 239.605 28.2655 241.96 28.7436C243.861 29.1302 245.758 29.5282 247.643 29.9908C249.736 30.504 251.84 30.9547 253.949 31.3975C256.031 31.8347 258.111 32.2777 260.189 32.7315C260.41 32.7797 260.631 32.828 260.859 32.8777C261.765 33.0756 262.671 33.2736 263.577 33.4721C265.894 33.9794 268.211 34.4811 270.537 34.9444C270.808 34.9987 270.808 34.9987 271.085 35.0542C271.919 35.221 272.753 35.3853 273.588 35.545C277.495 36.3195 277.495 36.3195 278.783 37.6178C279.546 38.9218 279.362 39.9638 279.008 41.3578C278.916 41.6869 278.822 42.0155 278.726 42.3435C278.681 42.501 278.636 42.6586 278.589 42.8209C278.246 43.9 277.807 44.5595 276.93 45.2736C276.183 45.4316 276.183 45.4316 275.551 45.5035C275.475 45.6551 275.4 45.8068 275.321 45.9631C275.121 45.9111 274.92 45.859 274.713 45.8054C271.851 45.0763 268.971 44.4395 266.086 43.8085C265.831 43.7528 265.577 43.697 265.315 43.6395C261.623 42.8294 257.927 42.0447 254.224 41.2877C249.964 40.4141 245.729 39.4609 241.503 38.4358C239.516 37.9563 237.526 37.5227 235.519 37.13C233.35 36.7025 231.194 36.2145 229.038 35.7257C228.303 35.5592 227.568 35.3934 226.833 35.2279C225.841 35.0044 224.848 34.7807 223.856 34.5567C220.955 33.9019 220.955 33.9019 218.054 33.2513C217.805 33.1956 217.805 33.1956 217.55 33.1388C215.215 32.6181 212.875 32.1334 210.527 31.6713C208.508 31.2715 206.489 30.871 204.48 30.4217C204.18 30.3589 204.18 30.3589 203.874 30.2949C203.327 30.1685 203.327 30.1685 202.469 29.8758C202.209 29.4383 202.209 29.4383 202.01 28.9566C201.825 28.6366 201.825 28.6366 201.636 28.3102C201.011 26.8605 201.37 25.528 201.823 24.0873C201.868 23.9269 201.913 23.7665 201.96 23.6012C202.358 22.312 202.92 21.7935 204.043 21.1163C205.724 20.4246 208.182 21.3611 209.867 21.7748Z" fill="#FED000"/>
<path d="M206.233 120.267C207.857 120.621 209.473 120.954 211.117 121.201C215.602 121.903 220.026 123.094 224.367 124.401C225.922 124.869 227.489 125.289 229.059 125.702C232.564 126.637 232.564 126.637 233.725 128.009C234.579 129.718 233.659 132.208 233.265 133.985C233.509 134.04 233.753 134.096 234.005 134.153C238.428 135.189 238.428 135.189 239.37 136.556C239.848 137.546 239.767 138.461 239.47 139.5C238.982 140.41 238.499 141.015 237.632 141.569C234.71 142.146 230.956 140.745 228.074 140.117C227.557 140.005 227.039 139.893 226.522 139.782C221.072 138.604 215.658 137.297 210.257 135.916C209.617 135.753 208.977 135.59 208.336 135.427C207.555 135.228 206.774 135.029 205.993 134.83C205.713 134.759 205.433 134.687 205.144 134.614C203.177 134.111 201.214 133.591 199.252 133.065C198.904 132.973 198.556 132.881 198.208 132.789C197.446 132.588 196.686 132.383 195.926 132.175C195.603 132.088 195.279 132.002 194.955 131.917C194.476 131.791 193.998 131.661 193.52 131.529C193.241 131.454 192.962 131.38 192.675 131.303C191.508 130.843 190.763 130.214 190.06 129.158C189.929 127.588 190.16 126.411 191.209 125.165C192.052 124.48 192.926 124.469 193.966 124.562C194.813 124.72 195.645 124.925 196.48 125.137C196.814 125.219 196.814 125.219 197.156 125.303C197.702 125.437 198.247 125.573 198.793 125.711C198.821 125.536 198.849 125.361 198.878 125.18C199.204 123.194 199.554 121.176 201.263 119.894C202.898 119.394 204.62 119.904 206.233 120.267Z" fill="#FEDA01"/>
<path d="M191.094 33.1375C191.682 33.2837 192.27 33.4295 192.859 33.5746C193.007 33.6114 193.156 33.6483 193.309 33.6862C195.122 34.1327 196.946 34.5293 198.771 34.9232C200.325 35.2618 201.859 35.6476 203.389 36.082C203.161 37.3972 202.914 38.705 202.623 40.0077C201.898 43.2815 201.335 46.546 200.904 49.8711C200.868 50.1479 200.868 50.1479 200.831 50.4303C200.372 53.977 200.133 57.4675 200.142 61.0445C200.143 61.6601 200.142 62.2756 200.14 62.8912C200.139 65.302 200.215 67.691 200.401 70.095C193.611 66.8946 188.22 62.0914 185.549 54.9037C183.364 48.789 182.937 42.6917 183.682 36.24C183.707 36.0125 183.732 35.7851 183.758 35.5508C183.929 34.2646 184.162 33.4051 185.004 32.4049C186.638 31.5878 189.437 32.7153 191.094 33.1375Z" fill="#FEFEFD"/>
<path d="M273.024 51.709C274.94 51.8257 276.774 52.0971 278.651 52.4981C278.913 52.5528 279.175 52.6075 279.445 52.6638C280.273 52.8372 281.101 53.0128 281.929 53.1884C282.488 53.3054 283.046 53.4223 283.605 53.539C289.6 54.7964 289.6 54.7964 290.375 55.2999C290.866 56.0782 290.81 56.7966 290.72 57.6842C290.542 58.4601 290.293 59.2031 290.03 59.9537C289.958 60.1641 289.885 60.3745 289.81 60.5912C287.315 67.6842 283.116 74.4238 276.701 78.5977C276.367 78.8225 276.367 78.8225 276.026 79.0519C272.96 81.0369 269.687 82.3959 266.129 83.194C265.834 83.2713 265.834 83.2713 265.534 83.3502C263.762 83.7806 261.964 83.6941 260.154 83.6536C260.481 82.7362 260.925 82.0129 261.475 81.2118C267.325 72.3702 270.552 61.92 273.024 51.709Z" fill="#FEFEFD"/>
<path d="M206.233 120.267C207.857 120.621 209.473 120.954 211.116 121.201C215.601 121.903 220.026 123.094 224.367 124.401C225.922 124.869 227.489 125.289 229.059 125.702C232.564 126.637 232.564 126.637 233.725 128.009C234.548 129.655 233.705 132.094 233.265 133.755C233.189 133.831 233.113 133.906 233.035 133.985C231.256 133.868 229.565 133.454 227.836 133.037C227.21 132.887 226.584 132.739 225.958 132.59C225.799 132.553 225.639 132.515 225.475 132.476C224.482 132.24 223.486 132.014 222.489 131.795C217.068 130.606 211.691 129.242 206.311 127.882C205.104 127.577 203.897 127.275 202.688 126.982C202.475 126.93 202.261 126.877 202.041 126.824C201.647 126.728 201.252 126.633 200.857 126.539C200.061 126.345 199.481 126.17 198.792 125.711C199.494 121.221 199.494 121.221 201.263 119.894C202.898 119.394 204.62 119.904 206.233 120.267Z" fill="#EDBD01"/>
<path d="M85.952 177.189C86.1825 178.21 86.2846 179.235 86.3811 180.275C86.3993 180.468 86.4176 180.661 86.4364 180.86C86.4962 181.499 86.5546 182.138 86.6127 182.777C86.6328 182.997 86.6529 183.217 86.6736 183.443C87.0041 187.091 87.2734 190.741 87.5033 194.397C87.5181 194.629 87.533 194.862 87.5484 195.101C87.7093 197.637 87.8394 200.157 87.7905 202.699C86.8463 201.802 86.06 200.837 85.2769 199.798C85.1477 199.628 85.0185 199.457 84.8854 199.282C83.5213 197.479 82.182 195.657 80.8453 193.834C80.16 192.9 79.4721 191.968 78.7845 191.036C77.417 189.181 76.0529 187.322 74.6909 185.463C74.9065 185.21 75.1223 184.958 75.3382 184.705C75.4583 184.565 75.5785 184.424 75.7023 184.279C77.8534 181.793 80.5874 180.013 83.3665 178.295C83.5445 178.185 83.7225 178.074 83.9059 177.96C84.0727 177.859 84.2396 177.758 84.4115 177.654C84.5592 177.564 84.707 177.474 84.8592 177.381C85.2625 177.189 85.2625 177.189 85.952 177.189Z" fill="#F1E7FE"/>
<path d="M222.745 97.1612C223.018 97.2006 223.291 97.24 223.573 97.2806C224.144 97.3633 224.715 97.4466 225.286 97.5304C226.16 97.6584 227.034 97.7836 227.909 97.9086C228.467 97.9897 229.024 98.0709 229.582 98.1523C229.973 98.208 229.973 98.208 230.371 98.2648C230.614 98.3009 230.856 98.3369 231.106 98.374C231.425 98.4204 231.425 98.4204 231.75 98.4678C232.371 98.5965 232.914 98.7983 233.495 99.051C233.495 99.2026 233.495 99.3543 233.495 99.5106C233.299 99.4857 233.103 99.4609 232.902 99.4353C230.139 99.0871 227.374 98.7548 224.609 98.4272C224.075 98.3637 223.541 98.3 223.007 98.2359C222.227 98.1424 221.447 98.0498 220.667 97.9575C220.31 97.9144 220.31 97.9144 219.946 97.8705C217.918 97.5093 217.918 97.5093 216.086 98.1317C214.819 99.8217 214.98 102.074 214.88 104.107C215.033 104.101 215.186 104.094 215.344 104.088C217.298 104.044 219.159 104.275 221.083 104.573C221.604 104.653 222.125 104.73 222.647 104.807C222.984 104.858 223.322 104.909 223.66 104.96C223.812 104.983 223.965 105.005 224.123 105.029C225.199 105.197 226.237 105.44 227.29 105.716C227.214 106.095 227.138 106.474 227.06 106.865C225.721 106.896 224.474 106.787 223.154 106.571C222.963 106.541 222.771 106.511 222.574 106.48C221.967 106.385 221.361 106.287 220.755 106.19C220.149 106.093 219.543 105.997 218.937 105.902C218.562 105.842 218.187 105.783 217.812 105.722C216.608 105.53 215.404 105.383 214.19 105.256C213.737 106.599 213.636 107.852 213.587 109.263C213.578 109.475 213.569 109.687 213.56 109.906C213.539 110.424 213.519 110.943 213.501 111.461C213.755 111.484 214.009 111.506 214.27 111.529C217.067 111.793 219.812 112.232 222.574 112.735C223.684 112.936 224.798 113.118 225.911 113.3C225.911 113.679 225.911 114.058 225.911 114.449C225.213 114.662 224.687 114.682 223.966 114.583C223.765 114.555 223.565 114.528 223.358 114.5C223.144 114.469 222.929 114.438 222.708 114.406C222.486 114.375 222.264 114.344 222.035 114.312C220.255 114.055 218.49 113.733 216.731 113.362C215.552 113.121 214.475 113.03 213.271 113.07C212.626 114.344 212.491 115.316 212.539 116.733C212.542 116.912 212.545 117.091 212.548 117.275C212.556 117.712 212.568 118.149 212.582 118.585C212.867 118.622 213.152 118.658 213.445 118.696C217.157 119.181 220.843 119.793 224.532 120.424C224.62 120.805 224.696 121.188 224.762 121.573C224.532 121.803 224.532 121.803 223.732 121.86C221.789 121.839 219.856 121.371 217.951 121.013C214.815 120.318 214.815 120.318 211.662 120.424C211.239 120.866 211.239 120.866 210.973 121.343C210.063 121.23 210.063 121.23 209.134 121.113C209.589 121 209.589 121 210.054 120.884C210.087 120.737 210.12 120.59 210.154 120.438C210.283 119.964 210.283 119.964 210.513 119.735C210.61 118.731 210.62 117.725 210.643 116.718C210.664 116.296 210.664 116.296 210.686 115.865C210.745 114.334 210.745 114.334 210.111 112.996C209.628 112.566 209.628 112.566 209.117 112.229C208.399 111.729 208.139 111.143 207.985 110.312C207.782 108.298 208.038 106.269 208.258 104.265C208.281 104.032 208.304 103.799 208.328 103.559C208.555 101.694 209.117 100.128 210.499 98.8068C211.707 98.0192 213.273 98.2756 214.65 98.3615C214.715 98.2208 214.78 98.0801 214.847 97.9351C216.218 95.3579 220.418 96.8199 222.745 97.1612Z" fill="#ECAB51"/>
<path d="M212.811 40.4479C213.638 40.8351 213.909 41.0598 214.42 41.8268C214.655 43.6802 214.247 45.4742 213.831 47.2706C213.704 47.8343 213.577 48.3981 213.45 48.9619C213.35 49.4043 213.35 49.4043 213.248 49.8556C213.066 50.6666 212.898 51.48 212.734 52.2948C212.599 52.966 212.461 53.6365 212.322 54.3071C212.256 54.6315 212.191 54.9563 212.128 55.2814C212.039 55.7381 211.943 56.1937 211.848 56.6491C211.795 56.9103 211.743 57.1714 211.689 57.4404C211.377 58.2952 210.976 58.7127 210.283 59.2929C209.451 59.5702 208.86 59.5969 207.985 59.5227C206.712 58.8156 206.712 58.8156 206.376 58.1438C206.165 55.7116 206.633 53.402 207.109 51.0339C207.183 50.6564 207.257 50.2789 207.331 49.9014C207.513 48.9832 207.698 48.0659 207.885 47.1489C207.977 46.6948 208.066 46.2402 208.156 45.7856C208.295 45.0777 208.44 44.3714 208.588 43.6653C208.627 43.4669 208.666 43.2684 208.706 43.0639C208.968 41.8788 209.306 41.2369 210.283 40.4479C211.083 40.0482 211.956 40.2793 212.811 40.4479Z" fill="#FEF24F"/>
<path d="M117.896 110.771C118.544 110.851 118.78 110.963 119.227 111.454C119.436 111.742 119.436 111.742 119.649 112.035C122.33 115.496 126.11 117.751 130.429 118.496C131.881 118.652 133.344 118.649 134.802 118.657C135.032 118.658 135.032 118.658 135.266 118.66C137.628 118.666 139.577 118.455 141.797 117.666C141.797 118.804 141.797 119.941 141.797 121.113C138.551 123.16 134.573 123.443 130.881 122.607C127.513 121.766 124.644 120.155 122.033 117.896C121.878 117.764 121.724 117.633 121.564 117.497C119.948 116.006 118.543 113.925 117.667 111.921C117.738 111.26 117.738 111.26 117.896 110.771Z" fill="#EBAA50"/>
<path d="M186.382 56.7656C187.939 56.9248 189.397 57.3682 190.892 57.8142C191.165 57.8949 191.437 57.9757 191.718 58.0589C194.049 58.7631 196.318 59.5909 198.573 60.5068C199.025 60.6735 199.473 60.7945 199.942 60.9023C199.947 61.0502 199.953 61.198 199.959 61.3503C200.074 64.2678 200.2 67.1822 200.401 70.0951C194.479 67.3415 189.625 63.3624 186.612 57.4551C186.536 57.2276 186.46 57 186.382 56.7656Z" fill="#F2E8FC"/>
<path d="M216.259 137.432C217.559 137.574 218.805 137.8 220.076 138.104C220.352 138.169 220.352 138.169 220.634 138.235C221.024 138.326 221.414 138.418 221.805 138.51C222.813 138.749 223.822 138.983 224.831 139.217C225.027 139.263 225.223 139.308 225.425 139.355C226.88 139.691 228.338 140.013 229.804 140.304C229.972 140.338 230.141 140.372 230.315 140.407C231.372 140.612 232.427 140.755 233.495 140.879C233.193 142.118 232.61 143.031 231.656 143.867C230.19 144.611 228.432 144.557 226.863 144.16C226.394 144.004 225.925 143.845 225.458 143.685C221.996 142.576 218.235 142.132 214.65 141.568C215.049 140.093 215.535 138.779 216.259 137.432Z" fill="#EBAA52"/>
<path d="M214.42 98.3626C214.346 98.5827 214.272 98.8028 214.196 99.0296C213.847 100.248 213.879 101.484 213.871 102.743C213.834 104.021 213.596 104.67 212.811 105.717C212.135 107.166 212.341 108.701 212.41 110.26C212.441 111.581 212.308 112.439 211.651 113.587C211.029 114.734 211.174 116.14 211.188 117.409C211.189 117.589 211.19 117.769 211.191 117.955C211.194 118.395 211.198 118.836 211.203 119.276C210.975 119.39 210.975 119.39 210.743 119.506C210.594 118.483 210.499 117.519 210.563 116.487C210.737 114.645 210.737 114.645 210.129 112.978C209.644 112.578 209.644 112.578 209.13 112.237C208.404 111.735 208.141 111.151 207.985 110.313C207.782 108.299 208.038 106.27 208.258 104.266C208.281 104.033 208.304 103.8 208.328 103.56C208.556 101.693 209.113 100.117 210.513 98.8079C211.669 98.0561 213.101 98.2734 214.42 98.3626Z" fill="#FED297"/>
<path d="M264.52 75.8398C264.596 75.9915 264.672 76.1432 264.75 76.2995C265.271 76.4006 265.271 76.4006 265.928 76.4575C267.502 76.6731 268.979 77.0957 270.496 77.5635C270.841 77.67 270.841 77.67 271.194 77.7787C272.86 78.3003 272.86 78.3003 273.616 78.6125C274.328 78.8875 275.026 78.9684 275.781 79.0573C274.848 79.8776 273.884 80.3841 272.765 80.8958C272.503 81.0166 272.503 81.0166 272.235 81.1398C268.325 82.9195 264.462 83.8676 260.154 83.6536C260.495 82.6887 260.994 81.8832 261.561 81.0395C262.665 79.3653 263.604 77.6219 264.52 75.8398Z" fill="#F2E7FC"/>
<path d="M91.0538 29.4213C92.0218 29.7588 92.5711 30.4316 93.2631 31.1682C94.0584 31.9999 94.8473 32.8185 95.7253 33.5637C97.7736 35.3443 99.6672 37.3064 101.593 39.2179C102.112 39.7329 102.633 40.2458 103.155 40.7571C103.791 41.3787 104.423 42.0037 105.053 42.6312C105.292 42.8684 105.532 43.1045 105.774 43.3392C106.111 43.6675 106.443 43.9998 106.775 44.3334C107.06 44.6147 107.06 44.6147 107.351 44.9017C107.891 45.6499 107.987 46.1963 108.015 47.1118C107.555 47.5715 107.555 47.5715 106.94 47.6922C105.814 47.5143 105.3 46.8923 104.518 46.0991C104.358 45.9426 104.199 45.786 104.034 45.6247C103.507 45.1062 102.985 44.5827 102.464 44.0587C102.1 43.6965 101.735 43.3345 101.371 42.9727C100.607 42.2136 99.8468 41.4519 99.0879 40.6884C98.1145 39.7097 97.1339 38.7384 96.151 37.769C95.3969 37.0232 94.647 36.2732 93.8983 35.5219C93.5384 35.162 93.1771 34.8034 92.8143 34.4464C92.308 33.9468 91.8078 33.4418 91.3088 32.9349C91.1576 32.7881 91.0063 32.6413 90.8505 32.4901C90.1113 31.7261 89.86 31.4622 89.8545 30.3594C89.9318 30.1239 90.0091 29.8883 90.0887 29.6457C90.5484 29.4159 90.5484 29.4159 91.0538 29.4213Z" fill="#FED95A"/>
<path d="M75.8398 48.0312C77.16 48.0906 78.1456 48.531 79.2943 49.1238C79.4675 49.2109 79.6407 49.298 79.8191 49.3878C80.3706 49.666 80.9205 49.9474 81.4704 50.2289C81.8324 50.4118 82.1944 50.5945 82.5566 50.7769C84.3863 51.7016 86.2015 52.6498 88.0068 53.6211C89.247 54.2851 90.5111 54.8777 91.7951 55.4505C93.2455 56.1133 93.2455 56.1133 93.7656 56.7643C93.6657 58.0133 93.6657 58.0133 93.306 58.373C91.6967 58.5898 90.5591 57.9077 89.1558 57.1809C88.9117 57.0577 88.6677 56.9345 88.4162 56.8076C87.6363 56.4132 86.8587 56.0143 86.0811 55.6152C85.5661 55.3537 85.051 55.0925 84.5357 54.8315C83.5413 54.3276 82.5481 53.8214 81.5558 53.3135C80.73 52.8917 79.902 52.4761 79.068 52.071C78.8996 51.9889 78.7313 51.9067 78.5578 51.8221C78.1265 51.6127 77.6942 51.4055 77.2618 51.1984C76.4571 50.7487 75.8388 50.2495 75.1504 49.64C75.3228 48.5483 75.3228 48.5483 75.8398 48.0312Z" fill="#FEDA5A"/>
<path d="M217.178 92.3867C217.401 92.4717 217.401 92.4717 217.629 92.5584C223.093 94.623 228.402 95.8114 234.184 96.5234C234.033 97.3577 233.881 98.1919 233.725 99.0514C228.053 98.2262 222.383 97.3898 216.718 96.5234C216.698 95.4978 216.749 94.5564 216.948 93.5502C216.991 93.3301 217.033 93.1099 217.077 92.8832C217.11 92.7193 217.143 92.5555 217.178 92.3867Z" fill="#EDBC02"/>
<path d="M74.6193 73.274C74.8931 73.2718 75.1669 73.2696 75.449 73.2673C75.7461 73.2663 76.0432 73.2653 76.3493 73.2643C76.6561 73.263 76.963 73.2617 77.2698 73.2604C77.9133 73.258 78.5569 73.2566 79.2004 73.2558C80.0253 73.2545 80.85 73.249 81.6749 73.2425C82.3088 73.2382 82.9426 73.237 83.5765 73.2367C84.0285 73.2356 84.4806 73.2313 84.9326 73.227C85.3444 73.228 85.3444 73.228 85.7646 73.2291C86.0066 73.2283 86.2486 73.2274 86.498 73.2266C87.1013 73.311 87.1013 73.311 87.5323 73.616C87.7908 74.0005 87.7908 74.0005 87.7477 74.7187C87.6861 74.9367 87.6244 75.1547 87.561 75.3794C86.9491 75.6853 86.4794 75.6418 85.7943 75.6462C85.3836 75.6495 85.3836 75.6495 84.9646 75.6529C84.5189 75.6544 84.5189 75.6544 84.0643 75.6559C83.7575 75.6572 83.4506 75.6585 83.1438 75.6598C82.5002 75.6623 81.8567 75.6636 81.2132 75.6644C80.3883 75.6657 79.5635 75.6712 78.7387 75.6777C78.1048 75.682 77.471 75.6832 76.8371 75.6836C76.3851 75.6846 75.933 75.6889 75.4809 75.6932C75.2064 75.6925 74.9319 75.6918 74.649 75.6911C74.286 75.6924 74.286 75.6924 73.9156 75.6937C73.3123 75.6092 73.3123 75.6092 72.8813 75.3042C72.6228 74.9197 72.6228 74.9197 72.6659 74.2016C72.7275 73.9835 72.7891 73.7655 72.8526 73.5408C73.4645 73.2349 73.9341 73.2784 74.6193 73.274Z" fill="#FED957"/>
<path d="M123.197 27.837C123.872 28.0381 123.872 28.0381 124.331 28.7276C124.39 29.2698 124.39 29.2698 124.391 29.9167C124.392 30.159 124.394 30.4013 124.395 30.651C124.394 30.9124 124.393 31.1739 124.392 31.4432C124.393 31.7115 124.393 31.9798 124.394 32.2562C124.394 32.8236 124.393 33.391 124.391 33.9584C124.389 34.8294 124.391 35.7004 124.394 36.5715C124.394 37.1219 124.393 37.6724 124.392 38.2228C124.393 38.4847 124.394 38.7466 124.395 39.0164C124.394 39.258 124.392 39.4996 124.391 39.7486C124.39 40.0685 124.39 40.0685 124.39 40.3949C124.331 40.9079 124.331 40.9079 123.872 41.3676C123.255 41.4466 122.881 41.4677 122.348 41.1307C121.862 40.4331 121.923 39.7015 121.915 38.88C121.911 38.7009 121.907 38.5219 121.903 38.3374C121.891 37.7627 121.883 37.188 121.875 36.6132C121.867 36.2378 121.86 35.8624 121.851 35.487C121.832 34.5634 121.82 33.6398 121.811 32.7161C121.803 32.1777 121.79 31.6397 121.775 31.1015C121.768 30.7683 121.762 30.4352 121.756 30.102C121.748 29.8088 121.741 29.5155 121.733 29.2134C121.803 28.4978 121.803 28.4978 122.107 28.051C122.493 27.8083 122.493 27.8083 123.197 27.837Z" fill="#FEDA5A"/>
<path d="M145.819 30.9688C146.394 31.0262 146.394 31.0262 146.854 31.4858C146.98 32.9793 146.662 34.2037 146.222 35.6226C146.094 36.0482 145.967 36.474 145.84 36.9C145.778 37.11 145.715 37.32 145.651 37.5364C145.313 38.7142 145.045 39.9085 144.775 41.1032C144.565 41.7976 144.343 42.2085 143.866 42.7469C143.191 42.6607 143.191 42.6607 142.487 42.5171C141.909 41.3602 142.325 39.9862 142.635 38.7978C142.674 38.6463 142.714 38.4948 142.754 38.3387C142.837 38.0204 142.92 37.7023 143.005 37.3845C143.133 36.9035 143.257 36.4218 143.382 35.9399C144.645 31.0862 144.645 31.0862 145.819 30.9688Z" fill="#FEDA5A"/>
<path d="M227.433 17.4082C228.924 17.4226 230.392 17.5771 231.872 17.7529C232.103 17.778 232.334 17.8031 232.573 17.829C233.819 17.9881 234.657 18.1272 235.563 19.0744C235.491 19.7351 235.491 19.7351 235.333 20.4533C233.734 21.5193 230.714 20.6113 228.855 20.3671C228.644 20.341 228.432 20.3149 228.214 20.2879C227.915 20.2463 227.915 20.2463 227.61 20.2037C227.432 20.1799 227.254 20.1561 227.07 20.1316C226.5 19.9643 226.259 19.7845 225.911 19.3042C226.04 17.4323 226.04 17.4323 227.433 17.4082Z" fill="#F25B3A"/>
<path d="M60.9019 18.616C61.4504 18.9958 61.4504 18.9958 61.9791 19.5209C63.0158 20.5152 64.0925 21.4274 65.2109 22.3281C65.728 22.7528 65.728 22.7528 66.1877 23.2124C66.1446 24.0168 66.1446 24.0168 65.9578 24.8211C65.2684 25.2808 65.2684 25.2808 64.7244 25.252C63.9772 25.0037 63.5382 24.6446 62.9415 24.1317C62.2622 23.5502 61.5878 22.9799 60.8731 22.4421C60.6456 22.2697 60.4181 22.0973 60.1837 21.9197C59.9745 21.765 59.7654 21.6104 59.5499 21.4511C58.9143 20.7499 58.8694 20.2373 58.8335 19.3055C59.3111 18.4345 59.987 18.5259 60.9019 18.616Z" fill="#FEC306"/>
<path d="M34.5735 71.4017C34.8586 71.398 35.1437 71.3943 35.4375 71.3905C35.7114 71.3904 35.9853 71.3902 36.2675 71.3901C36.5182 71.3894 36.769 71.3887 37.0273 71.388C37.7691 71.4837 38.0877 71.6334 38.6096 72.163C38.7128 72.8706 38.76 73.3186 38.3524 73.924C37.7133 74.3785 37.1968 74.3207 36.4192 74.3229C36.1238 74.3238 35.8285 74.3247 35.5242 74.3256C35.3705 74.3242 35.2169 74.3227 35.0586 74.3213C34.5894 74.3176 34.1207 74.3212 33.6515 74.3256C33.3561 74.3247 33.0608 74.3239 32.7565 74.3229C32.4853 74.3222 32.214 74.3214 31.9346 74.3206C31.2555 74.2314 31.2555 74.2314 30.8151 73.9321C30.566 73.5419 30.566 73.5419 30.5947 72.7232C31.0597 70.8967 33.0362 71.3978 34.5735 71.4017Z" fill="#FEC50E"/>
<path d="M15.3262 40.3047C16.5298 40.5318 16.9814 41.3422 17.6962 42.2869C17.8674 42.4969 18.0387 42.7069 18.2151 42.9234C18.3851 43.1399 18.5552 43.3565 18.7304 43.5796C18.8892 43.7816 19.048 43.9837 19.2116 44.1918C19.5347 44.8149 19.5347 44.8149 19.5132 45.5528C19.3049 46.1938 19.3049 46.1938 18.6155 46.6534C17.9034 46.6662 17.4377 46.6071 16.8996 46.116C16.5557 45.709 16.2404 45.2907 15.9295 44.858C15.8209 44.7132 15.7123 44.5685 15.6005 44.4194C15.3916 44.1403 15.1848 43.8595 14.9804 43.5771C14.758 43.2736 14.5231 42.9794 14.2848 42.6881C14.0191 42.2869 14.0191 42.2869 14.0622 41.5687C14.3005 40.7257 14.4682 40.5042 15.3262 40.3047Z" fill="#FEC207"/>
<path d="M210.743 150.07C210.895 150.07 211.046 150.07 211.203 150.07C211.153 150.278 211.103 150.486 211.052 150.701C210.521 153.194 210.448 155.66 210.456 158.2C210.456 158.368 210.456 158.536 210.457 158.709C210.461 162.589 210.461 162.589 211.11 166.402C211.203 166.847 211.203 166.847 211.203 167.766C210.899 167.766 210.596 167.766 210.283 167.766C207.92 163.575 208.815 156.852 209.911 152.409C210.139 151.609 210.435 150.844 210.743 150.07Z" fill="#ECAB51"/>
<path d="M128.468 103.648C128.913 103.72 128.913 103.72 129.387 103.878C129.463 104.106 129.539 104.333 129.617 104.568C130.034 104.812 130.034 104.812 130.536 105.027C130.901 105.256 131.265 105.486 131.628 105.717C133.287 106.702 134.622 106.901 136.526 106.923C136.681 106.926 136.835 106.928 136.995 106.93C138.056 106.923 138.948 106.711 139.959 106.406C140.634 106.492 140.634 106.492 141.108 106.636C141.055 107.071 141.055 107.071 140.878 107.555C140.436 107.788 140.436 107.788 139.887 107.943C139.708 107.996 139.529 108.049 139.344 108.104C139.168 108.15 138.992 108.197 138.81 108.245C138.657 108.288 138.505 108.331 138.348 108.375C135.484 108.999 132.494 107.88 130.077 106.406C129.425 105.905 128.821 105.377 128.238 104.798C128.314 104.418 128.39 104.039 128.468 103.648Z" fill="#05001D"/>
<path d="M96.7534 219.017C101.712 218.72 106.236 219.739 110.542 222.234C110.542 222.386 110.542 222.537 110.542 222.694C109.23 222.975 108.63 222.955 107.43 222.29C104.22 220.667 100.495 220.39 96.9832 219.936C96.9074 219.633 96.8316 219.329 96.7534 219.017Z" fill="#EEAB52"/>
<path d="M138.12 88.709C138.527 88.726 138.527 88.726 139.04 88.9388C139.361 89.4597 139.626 89.9545 139.887 90.5044C140.637 92.0047 141.501 93.3004 142.536 94.6169C143.423 95.7552 143.308 96.9643 143.176 98.3613C142.69 99.3872 142.16 99.9892 141.108 100.43C140.232 100.473 140.232 100.473 139.499 100.43C139.499 100.202 139.499 99.9746 139.499 99.7402C139.69 99.6487 139.69 99.6487 139.885 99.5553C140.052 99.4741 140.218 99.393 140.39 99.3093C140.555 99.2293 140.721 99.1494 140.891 99.0669C141.458 98.7551 141.749 98.5206 141.939 97.8927C142.132 95.9578 141.259 94.9507 140.108 93.5196C139.153 92.3319 138.276 91.1292 137.891 89.6283C137.981 89.1004 137.981 89.1004 138.12 88.709Z" fill="#05001D"/>
<path d="M98.8218 213.272C102.04 213.084 104.997 213.813 108.014 214.852C108.234 214.927 108.453 215.002 108.679 215.08C110.44 215.71 112.289 216.411 113.53 217.868C113.17 218.148 113.17 218.148 112.611 218.328C112.043 218.086 111.548 217.83 111.016 217.523C107.27 215.505 103.029 214.735 98.8218 214.421C98.8218 214.042 98.8218 213.662 98.8218 213.272Z" fill="#EDAB52"/>
<path d="M100.201 207.296C105.086 207.084 110.037 208.145 114.22 210.743C114.22 210.895 114.22 211.046 114.22 211.203C113.84 211.203 113.461 211.203 113.07 211.203C112.995 211.354 112.919 211.506 112.841 211.662C112.841 211.511 112.841 211.359 112.841 211.203C112.376 211.048 111.91 210.893 111.445 210.74C110.968 210.579 110.494 210.414 110.021 210.244C106.846 209.13 103.574 208.35 100.201 208.215C100.201 207.912 100.201 207.608 100.201 207.296Z" fill="#ECAA51"/>
<path d="M288.062 14.8672C288.651 14.939 288.651 14.939 289.034 15.2227C289.543 15.8963 289.337 16.4881 289.23 17.2884C288.741 19.9055 288.741 19.9055 287.962 20.6844C287.319 20.7668 286.963 20.7928 286.429 20.4088C285.9 19.6929 286.131 18.9862 286.233 18.1412C286.784 15.031 286.784 15.031 288.062 14.8672Z" fill="#8B47F7"/>
<path d="M170.984 10.5712C171.415 10.8441 171.415 10.8441 171.674 11.2606C171.774 11.8352 171.774 11.8352 171.674 12.4097C171.206 12.8599 170.726 13.1142 170.151 13.4152C169.504 13.8578 169.366 14.1985 169.146 14.9377C168.37 15.0813 168.37 15.0813 167.537 15.1675C167.077 14.7079 167.077 14.7079 166.991 13.8461C167.023 12.8287 167.312 12.2623 167.997 11.4904C168.924 10.7677 169.796 10.3822 170.984 10.5712Z" fill="#8846F8"/>
<path d="M337.143 40.6211C337.832 40.6785 337.832 40.6785 338.292 41.1382C338.392 41.7845 338.392 41.7845 338.292 42.5171C337.818 43.0773 337.818 43.0773 337.143 43.6662C337.015 43.8078 336.888 43.9494 336.757 44.0953C335.724 45.2384 335.724 45.2384 334.787 45.4185C334.155 45.2749 334.155 45.2749 333.71 45.0164C333.332 44.3486 333.496 43.9326 333.696 43.2065C334.205 42.6356 334.205 42.6356 334.83 42.1149C335.036 41.9407 335.242 41.7665 335.454 41.587C335.632 41.4389 335.81 41.2908 335.994 41.1382C336.453 40.6785 336.453 40.6785 337.143 40.6211Z" fill="#8843F7"/>
<path d="M321.975 82.5036C322.126 82.6553 322.278 82.807 322.434 82.9632C322.42 83.6527 322.42 83.6527 322.204 84.3421C321.219 84.9 320.164 84.916 319.059 84.9741C318.881 84.9869 318.704 84.9996 318.522 85.0127C318.065 85.0391 317.606 85.0373 317.148 85.0316C316.689 84.572 316.689 84.572 316.631 83.8825C316.689 83.193 316.689 83.193 317.148 82.7334C318.705 82.3795 320.389 82.3823 321.975 82.5036Z" fill="#9860FE"/>
<path d="M315.54 45.2749C316.036 46.0198 316.147 46.2486 315.999 47.1134C315.511 47.573 315.511 47.573 314.85 48.0327C314.625 48.2481 314.4 48.4636 314.175 48.679C313.471 49.1818 313.471 49.1818 312.71 49.1674C312.092 48.952 312.092 48.952 311.863 48.4923C311.733 47.7598 311.733 47.7598 311.863 46.8836C312.868 45.5357 313.883 44.9892 315.54 45.2749Z" fill="#F25A39"/>
<path d="M129.847 88.1211C130.536 88.2504 130.536 88.2504 131.082 88.71C131.595 89.6572 131.575 90.1665 131.456 91.238C131.197 91.8125 131.197 91.8125 130.766 92.1573C130.091 92.2865 130.091 92.2865 129.387 92.1573C128.696 91.4476 128.274 90.876 128.167 89.8878C128.238 89.1696 128.238 89.1696 128.612 88.6238C129.158 88.2504 129.158 88.2504 129.847 88.1211Z" fill="#05001D"/>
<path d="M144.096 86.8418C145.035 87.194 145.273 87.5828 145.704 88.4792C145.8 89.2897 145.861 89.8186 145.446 90.5332C144.792 90.9037 144.373 90.8978 143.636 90.7774C142.945 90.0677 142.522 89.4962 142.415 88.508C142.487 87.7898 142.487 87.7898 142.86 87.2296C143.406 86.8705 143.406 86.8705 144.096 86.8418Z" fill="#05001D"/>
<path d="M142.229 78.7735C142.547 78.7742 142.547 78.7742 142.871 78.7749C143.09 78.7777 143.31 78.7805 143.536 78.7834C143.756 78.7836 143.976 78.7837 144.203 78.7839C145.837 78.7942 145.837 78.7942 146.624 79.0563C146.634 79.4392 146.633 79.8225 146.624 80.2054C146.394 80.4352 146.394 80.4352 145.819 80.4613C145.57 80.4601 145.321 80.4589 145.065 80.4577C144.796 80.4569 144.527 80.4562 144.25 80.4554C143.967 80.4535 143.684 80.4516 143.392 80.4496C142.966 80.448 142.966 80.448 142.532 80.4465C141.827 80.4437 141.123 80.44 140.419 80.4352C140.343 80.056 140.267 79.6768 140.189 79.2861C140.899 78.8733 141.412 78.7695 142.229 78.7735Z" fill="#05001D"/>
<path d="M131.686 80.4363C131.696 80.8192 131.695 81.2025 131.686 81.5854C131.255 82.0164 130.527 81.9563 129.948 82.0307C129.013 82.1571 128.101 82.2864 127.19 82.5334C126.499 82.7091 125.957 82.7786 125.251 82.7345C125.175 82.4311 125.099 82.1278 125.021 81.8152C126.88 80.1178 129.349 80.3589 131.686 80.4363Z" fill="#05001D"/>
<path d="M224.871 97.623C227.691 97.8714 230.476 98.3487 233.265 98.8215C233.379 99.1628 233.379 99.1628 233.495 99.511C233.205 99.4732 233.205 99.4732 232.909 99.4347C229.814 99.0394 226.714 98.7015 223.613 98.3619C224.231 97.6786 224.231 97.6786 224.871 97.623Z" fill="#EDAF60"/>
<path d="M138.81 107.094C138.734 107.246 138.658 107.398 138.58 107.554C138.201 107.554 137.822 107.554 137.431 107.554C137.431 107.706 137.431 107.857 137.431 108.013C137.096 108.026 136.761 108.035 136.425 108.042C136.239 108.048 136.052 108.053 135.86 108.058C135.362 108.013 135.362 108.013 134.903 107.554C135.444 107.283 135.867 107.252 136.468 107.195C136.664 107.175 136.86 107.156 137.062 107.136C137.647 107.095 138.224 107.087 138.81 107.094Z" fill="#05001D"/>
<path d="M145.705 51.709C147.123 52.1078 148.136 53.2209 149.152 54.237C149.076 54.4645 149 54.692 148.922 54.9264C148.844 54.8236 148.766 54.7208 148.685 54.6149C147.906 53.6435 147.15 53.0075 146.058 52.4083C145.942 52.3292 145.825 52.2501 145.705 52.1686C145.705 52.0169 145.705 51.8653 145.705 51.709Z" fill="#201367"/>
<path d="M210.743 150.07C210.894 150.07 211.046 150.07 211.202 150.07C211.051 150.98 210.899 151.89 210.743 152.828C210.24 151.822 210.263 151.577 210.513 150.53C210.589 150.378 210.665 150.227 210.743 150.07Z" fill="#EEAE55"/>
<path d="M117.667 82.5039C117.742 82.5039 117.818 82.5039 117.896 82.5039C117.82 83.2623 117.745 84.0207 117.667 84.8021C117.439 84.8779 117.211 84.9538 116.977 85.0319C117.205 84.1977 117.432 83.3634 117.667 82.5039Z" fill="#E2C591"/>
<path d="M114.909 210.973C114.909 211.124 114.909 211.276 114.909 211.432C114.368 211.761 114.109 211.912 113.472 211.806C113.34 211.758 113.207 211.711 113.07 211.662C113.07 211.51 113.07 211.359 113.07 211.202C113.705 211.065 114.256 210.973 114.909 210.973Z" fill="#895BF8"/>
<path d="M141.568 138.121C141.719 138.197 141.871 138.273 142.027 138.351C141.8 138.692 141.8 138.692 141.568 139.04C140.735 139.198 140.735 139.198 139.959 139.27C140.487 138.87 141.016 138.489 141.568 138.121Z" fill="#9665F4"/>
<path d="M315.08 45.2734C315.308 45.3493 315.535 45.4251 315.77 45.5033C315.845 46.0341 315.921 46.565 315.999 47.112C315.848 47.112 315.696 47.112 315.54 47.112C315.388 46.5053 315.236 45.8985 315.08 45.2734Z" fill="#F26647"/>
<path d="M334.385 42.7461C334.844 42.9759 334.844 42.9759 334.844 42.9759L334.385 42.7461ZM333.925 42.9759C334.077 42.9759 334.228 42.9759 334.385 42.9759C334.233 43.5068 334.081 44.0377 333.925 44.5846C333.773 44.5846 333.622 44.5846 333.465 44.5846C333.666 43.2345 333.666 43.2345 333.925 42.9759Z" fill="#9252F6"/>
</svg>
